Coordinates
version=1
nRows=9
nColumns=36
inDegrees=yes

Units are S.I. units (second, meters, Newtons, ...)
If the header above contains a line with 'inDegrees', this indicates whether rotational values are in degrees (yes) or radians (no).

endheader
time	pelvis_tilt	pelvis_list	pelvis_rotation	pelvis_tx	pelvis_ty	pelvis_tz	hip_flexion_r	hip_adduction_r	hip_rotation_r	knee_angle_r	knee_angle_r_beta	ankle_angle_r	subtalar_angle_r	mtp_angle_r	hip_flexion_l	hip_adduction_l	hip_rotation_l	knee_angle_l	knee_angle_l_beta	ankle_angle_l	subtalar_angle_l	mtp_angle_l	lumbar_extension	lumbar_bending	lumbar_rotation	arm_flex_r	arm_add_r	arm_rot_r	elbow_flex_r	pro_sup_r	arm_flex_l	arm_add_l	arm_rot_l	elbow_flex_l	pro_sup_l
      3.33333330	    -12.85422012	     -1.96530980	      0.40509988	     -0.02176513	      0.71098619	     -0.08905641	     71.88583708	     -8.03190543	      1.16810699	     83.21203739	      1.45232403	     22.79768369	    -15.53555869	     -7.49999987	     70.85810928	     -7.61246412	      5.92473101	     85.98394694	      1.50070298	     24.72401781	    -11.30060078	     -7.49999987	    -39.99423697	      2.27948017	     -0.65578270	     78.62172870	    -16.71989664	     22.03560669	     69.42163854	     76.41700236	     74.22050526	    -10.33560203	     19.95271998	     70.46602412	     51.01567464
      3.33750000	    -12.82618548	     -1.97367293	      0.47964516	     -0.02060018	      0.70808258	     -0.08839557	     71.93326918	     -8.07504267	      0.86255686	     83.76317674	      1.46194323	     23.05076647	    -15.85284690	     -7.49999987	     70.90813350	     -7.82062530	      5.99154154	     86.38950758	      1.50778135	     24.70725724	    -11.32176692	     -7.49999987	    -40.77696903	      2.16392264	     -0.69013900	     77.80660734	    -17.38336398	     21.89811304	     69.15641869	     76.36372506	     73.79281064	    -11.11147679	     19.75766516	     70.20343786	     51.01958362
      3.34166670	    -12.73400222	     -1.94716477	      0.42306167	     -0.01799023	      0.70681461	     -0.09406964	     71.89097882	     -8.24681626	      0.91465343	     84.12941520	      1.46833529	     23.07293783	    -15.76842982	     -7.49999987	     70.94477098	     -7.84138281	      5.93766288	     86.94072418	      1.51740189	     24.76124258	    -11.22771780	     -7.49999987	    -41.54457797	      2.17009114	     -0.56168080	     76.96011853	    -18.04448044	     21.68393593	     68.82695960	     76.35880661	     72.94911011	    -11.83185026	     19.63401679	     69.93659845	     50.99919909
      3.34583330	    -12.78763375	     -1.78988442	      0.33890974	     -0.01716576	      0.70851821	     -0.09727957	     71.79093763	     -8.63144557	      1.04678031	     84.11037047	      1.46800290	     23.68755381	    -14.60985276	     -7.49999987	     70.94035082	     -7.69983742	      5.63356833	     87.24179944	      1.52265665	     25.45934771	    -10.58607340	     -7.49999987	    -42.15468263	      2.04855069	     -0.43085770	     75.79355652	    -18.34351373	     20.14647620	     67.51328628	     76.14569806	     71.83674026	    -11.76674915	     19.21520936	     69.50165265	     51.03771681
      3.35000000	    -12.61564207	     -1.69577496	      0.21890497	     -0.00984386	      0.70553765	     -0.09885158	     71.52321146	     -9.04089306	      1.22127027	     84.38164813	      1.47273759	     23.86768578	    -14.31912018	     -7.49999987	     70.59026357	     -7.59393654	      5.47039517	     87.69684060	      1.53059861	     25.76572481	    -10.59726826	     -7.49999987	    -42.89000079	      2.27270341	     -0.31265467	     74.76080399	    -19.02783845	     19.90618773	     67.03452745	     76.14742387	     70.46301182	    -12.27529970	     19.19082281	     69.22292672	     51.04466441
      3.35416670	    -12.54008885	     -1.62901245	      0.07469188	     -0.01464868	      0.70237043	     -0.09355609	     71.73155592	     -9.25290716	      1.04898585	     84.85309247	      1.48096584	     23.98586260	    -14.22275889	     -7.49999987	     70.74654190	     -7.67952823	      5.44583982	     88.23550600	      1.54000010	     25.88858769	    -10.62102718	     -7.49999987	    -43.73957558	      2.15542349	     -0.21345056	     74.25439552	    -19.53274540	     19.72153616	     66.68958829	     76.14737226	     69.92561311	    -12.84120079	     19.04569732	     68.99210912	     51.04260740
      3.35833330	    -12.44656325	     -1.53285614	      0.06600446	     -0.01819405	      0.69941517	     -0.09124001	     72.29882961	     -9.41367911	      0.92372103	     85.60835867	      1.49414773	     24.17316030	    -14.27906631	     -7.49999987	     71.26680559	     -7.70182557	      5.55739398	     88.84841566	      1.55069739	     25.85439086	    -10.59558576	     -7.49999987	    -44.61262318	      1.97729148	     -0.11737515	     74.14962171	    -19.84570106	     19.56101422	     66.39712615	     76.11511045	     69.80444041	    -13.30204350	     18.92102675	     68.75644843	     51.05376022
      3.36250000	    -12.97846881	     -1.58579208	      0.18701100	     -0.01860519	      0.69459922	     -0.08789869	     73.49376675	     -9.37659928	      0.69614515	     86.39969131	      1.50795909	     24.73909114	    -14.21452518	     -7.49999987	     72.58445427	     -7.92154379	      5.79483395	     89.59932930	      1.56380330	     26.06256823	     -9.68073739	     -7.49999987	    -44.36779065	      1.82731989	     -0.14797259	     73.21860659	    -19.80358601	     18.88287375	     65.09829577	     76.33170608	     69.55220183	    -14.08698657	     19.44653949	     67.79326797	     51.29725133
      3.36666670	    -13.25226722	     -1.67590015	      0.31245416	     -0.01748054	      0.69359319	     -0.08863750	     74.11785180	     -9.29553934	      0.47659122	     86.83173459	      1.51549966	     24.74575810	    -14.68791812	     -7.49999987	     73.44871739	     -8.11245304	      5.96924559	     90.09633165	      1.57247763	     25.74730680	     -9.54768417	     -7.49999987	    -44.67689563	      1.76804308	     -0.19909159	     72.37797502	    -20.17330311	     18.62052633	     64.76380074	     75.65300784	     69.49649708	    -14.84049411	     19.87230071	     67.16440464	     52.09773702
